<?xml version="1.0" standalone="no"?>
<!DOCTYPE svg PUBLIC "-//W3C//DTD SVG 20010904//EN"
 "http://www.w3.org/TR/2001/REC-SVG-20010904/DTD/svg10.dtd">
<svg version="1.0" xmlns="http://www.w3.org/2000/svg"
 width="700.000000pt" height="700.000000pt" viewBox="0 0 700.000000 700.000000"
 preserveAspectRatio="xMidYMid meet">
<metadata>
Created by potrace 1.11, written by Peter Selinger 2001-2013
</metadata>
<g transform="translate(0.000000,700.000000) scale(0.100000,-0.100000)"
fill="#000000" stroke="none">
<path d="M280 6833 c-23 -8 -70 -55 -86 -85 -11 -22 -14 -101 -14 -417 l0
-391 -86 -477 c-91 -501 -100 -588 -75 -693 19 -79 73 -188 120 -242 l41 -46
0 -2105 0 -2104 23 -34 c12 -18 38 -44 56 -56 l34 -23 3207 0 3207 0 34 23
c18 12 44 38 56 56 l23 34 0 2102 c0 2075 0 2102 20 2120 38 34 99 141 126
220 46 135 41 192 -60 747 l-86 477 0 394 c0 393 0 394 -23 428 -12 18 -38 44
-56 56 l-34 23 -3206 -1 c-1763 0 -3213 -3 -3221 -6z m6210 -538 l0 -215
-2990 0 -2990 0 0 215 0 215 2990 0 2990 0 0 -215z m-5180 -1029 l0 -483 -57
-40 c-167 -117 -345 -164 -533 -143 -167 19 -288 76 -341 159 -58 91 -58 99
26 564 41 229 75 419 75 422 0 3 187 5 415 5 l415 0 0 -484z m2700 5 l0 -479
-41 -36 c-59 -50 -186 -113 -276 -137 -107 -29 -278 -29 -384 -1 -88 24 -178
67 -261 125 l-58 40 0 483 0 484 510 0 510 0 0 -479z m2510 473 c0 -3 32 -182
71 -397 74 -407 82 -488 57 -548 -55 -127 -225 -203 -453 -201 -172 1 -302 43
-447 145 l-58 40 0 483 0 484 415 0 c228 0 415 -3 415 -6z m-4873 -1584 c83
-55 192 -102 290 -127 104 -26 342 -23 448 6 143 38 324 139 404 225 14 14 30
26 36 26 6 0 22 -12 36 -26 77 -83 242 -177 386 -221 80 -24 102 -27 253 -27
151 0 173 3 253 27 144 44 309 138 386 221 31 33 41 33 72 0 77 -83 242 -177
386 -221 80 -24 102 -27 253 -27 151 0 173 3 253 27 144 44 309 138 386 221
31 33 41 33 77 -5 78 -81 237 -172 381 -216 79 -24 104 -26 248 -27 122 0 175
4 221 17 34 9 65 17 68 17 3 0 6 -801 6 -1780 l0 -1780 -1705 0 -1705 0 0
1543 c0 1478 -1 1544 -19 1582 -21 46 -54 79 -94 94 -39 15 -2034 15 -2074 0
-42 -15 -92 -68 -103 -109 -6 -22 -10 -594 -10 -1572 l0 -1538 -135 0 -135 0
0 1783 0 1783 73 -20 c105 -29 340 -28 450 2 148 41 323 139 411 231 l29 30
51 -46 c28 -25 83 -67 123 -93z m1101 -2222 l2 -1448 -815 0 -815 0 0 1450 0
1450 813 -2 812 -3 3 -1447z"/>
<path d="M3544 3701 c-23 -10 -52 -34 -65 -52 l-24 -34 0 -1310 0 -1310 24
-34 c13 -18 42 -42 65 -52 39 -18 94 -19 1316 -19 1222 0 1277 1 1316 19 23
10 52 34 65 52 l24 34 0 1312 c0 1308 0 1312 -21 1340 -11 15 -40 38 -64 51
l-44 22 -1276 0 c-1222 0 -1277 -1 -1316 -19z m2396 -1396 l0 -1085 -1080 0
-1080 0 0 1085 0 1085 1080 0 1080 0 0 -1085z"/>
<path d="M1370 3197 c-30 -16 -51 -37 -67 -67 l-23 -44 2 -1161 3 -1162 28
-36 c57 -75 34 -72 595 -75 325 -2 516 1 541 8 52 14 90 45 112 94 18 39 19
93 19 1185 0 1122 0 1146 -20 1185 -11 23 -36 52 -57 66 l-37 25 -526 3 -526
3 -44 -24z m878 -1259 l-3 -953 -317 -3 -318 -2 0 955 0 955 320 0 320 0 -2
-952z"/>
</g>
</svg>
