<svg id="Layer_1" data-name="Layer 1" xmlns="http://www.w3.org/2000/svg" viewBox="0 0 512 489.53"><defs><style>.cls-1{fill:#e26033;}.cls-2{fill:#e6e6e6;}.cls-3{fill:#627d98;}.cls-4{fill:#243b53;}.cls-5{fill:#4d4d4d;}.cls-6{fill:#fff;}.cls-7{fill:#102a43;}</style></defs><title>logo</title><path class="cls-1" d="M212.92,252.17V488.58H69.4V252.17ZM176.39,452.05V288.71H105.93V452.05Z" transform="translate(0 -11.23)"/><rect class="cls-2" x="105.93" y="277.48" width="70.46" height="163.35"/><path class="cls-3" d="M481.87,182l-.22.11a68.38,68.38,0,0,1-77.6-15l0,0v0a68.36,68.36,0,0,1-98.68,0h0a68.39,68.39,0,0,1-98.7,0,68.37,68.37,0,0,1-98.7,0h0a68.4,68.4,0,0,1-74.64,16.22,42.18,42.18,0,0,1-5.85-3A26.28,26.28,0,0,1,25,178.67V488.58H69.4V252.17H212.92V488.58H487V179A30.55,30.55,0,0,1,481.87,182ZM446.73,434.58H264.34V252.17H446.73Z" transform="translate(0 -11.23)"/><polygon class="cls-3" points="487 12.18 487 68.19 404.01 68.19 305.31 68.19 206.62 68.19 107.92 68.19 24.95 68.19 24.95 12.18 487 12.18"/><path class="cls-4" d="M404,167.1h0a68.34,68.34,0,0,1-98.68,0h0V79.43H404V167.1Z" transform="translate(0 -11.23)"/><path class="cls-4" d="M206.62,167.1h0a68.36,68.36,0,0,1-98.7,0V79.43h98.7Z" transform="translate(0 -11.23)"/><path class="cls-1" d="M499.32,148.13A31.25,31.25,0,0,1,487,179a30.55,30.55,0,0,1-5.13,3l-.22.11a68.4,68.4,0,0,1-77.6-15l0,0h0V79.43h83Z" transform="translate(0 -11.23)"/><path class="cls-1" d="M305.31,167.1h0a68.36,68.36,0,0,1-98.69,0h0V79.43h98.69Z" transform="translate(0 -11.23)"/><path class="cls-1" d="M107.92,79.43V167.1h0a68.4,68.4,0,0,1-74.64,16.22,42.81,42.81,0,0,1-5.86-3A27.67,27.67,0,0,1,25,178.67,31.31,31.31,0,0,1,12.66,147.9L25,79.43Z" transform="translate(0 -11.23)"/><path class="cls-5" d="M487,179v31a29.88,29.88,0,0,1-5.13,3,1.51,1.51,0,0,1-.22.11,68.38,68.38,0,0,1-77.6-14.95l0,0h0a68.34,68.34,0,0,1-98.68,0h0a68.38,68.38,0,0,1-98.7,0,68.37,68.37,0,0,1-98.7,0v0a68.41,68.41,0,0,1-74.64,16.22,44.5,44.5,0,0,1-5.85-3A26.37,26.37,0,0,1,25,209.72V178.67a25,25,0,0,0,2.46,1.64,42.18,42.18,0,0,0,5.85,3,68.4,68.4,0,0,0,74.64-16.22h0a68.37,68.37,0,0,0,98.7,0,68.39,68.39,0,0,0,98.7,0h0a68.36,68.36,0,0,0,98.68,0v0l0,0a68.38,68.38,0,0,0,77.6,15l.22-.11A30.55,30.55,0,0,0,487,179Z" transform="translate(0 -11.23)"/><rect class="cls-2" x="264.33" y="240.95" width="182.39" height="182.4"/><path class="cls-6" d="M264.34,391.17a12.17,12.17,0,0,1-8.38-21l27.33-25.94a12.18,12.18,0,1,1,16.76,17.67l-27.33,25.94A12.16,12.16,0,0,1,264.34,391.17Z" transform="translate(0 -11.23)"/><path class="cls-6" d="M323.57,335a12.18,12.18,0,0,1-8.38-21l74.45-70.62A12.18,12.18,0,0,1,406.4,261L332,331.63A12.11,12.11,0,0,1,323.57,335Z" transform="translate(0 -11.23)"/><path class="cls-6" d="M283.69,446.76a12.17,12.17,0,0,1-8.38-21l94.12-89.3a12.18,12.18,0,1,1,16.76,17.67l-94.12,89.3A12.16,12.16,0,0,1,283.69,446.76Z" transform="translate(0 -11.23)"/><path class="cls-6" d="M105.93,381.77a12.18,12.18,0,0,1-8.38-21L168,293.9a12.18,12.18,0,1,1,16.76,17.67l-70.45,66.85A12.15,12.15,0,0,1,105.93,381.77Z" transform="translate(0 -11.23)"/><path class="cls-6" d="M105.93,438.78a12.18,12.18,0,0,1-8.38-21L168,350.91a12.18,12.18,0,1,1,16.76,17.67l-70.45,66.85A12.15,12.15,0,0,1,105.93,438.78Z" transform="translate(0 -11.23)"/><path class="cls-6" d="M412.82,324.25a12.17,12.17,0,0,1-8.38-21l33.91-32.17a12.18,12.18,0,1,1,16.76,17.67L421.2,320.91A12.16,12.16,0,0,1,412.82,324.25Z" transform="translate(0 -11.23)"/><circle class="cls-1" cx="451.45" cy="39.66" r="12.18"/><path class="cls-7" d="M511.31,146,499.17,78.34V23.41A12.18,12.18,0,0,0,487,11.23H25A12.18,12.18,0,0,0,12.78,23.41V78.34L.67,145.75a43.77,43.77,0,0,0,12.11,38.43V488.59A12.18,12.18,0,0,0,25,500.77H487a12.18,12.18,0,0,0,12.18-12.18v-304A43.5,43.5,0,0,0,511.31,146ZM33.68,169.88a19.29,19.29,0,0,1-9-19.82L35.15,91.6H95.74v70.33a56,56,0,0,1-58,10.09A29.82,29.82,0,0,1,33.68,169.88Zm86.41-78.27h74.34v70.3a56.13,56.13,0,0,1-74.34,0V91.61Zm98.7,0h74.34v70.31a56.15,56.15,0,0,1-74.34,0V91.61Zm98.7,0h74.35v70.31a56.13,56.13,0,0,1-74.35,0V91.61Zm98.7,0h60.62l10.52,58.67a18.89,18.89,0,0,1-10.62,20.66l-.09.05a56.33,56.33,0,0,1-60.43-9.08V91.61Zm-379-56H474.82V67.25H37.14ZM81.57,476.41v-212H200.75V476.41Zm143.53,0V252.18A12.18,12.18,0,0,0,212.92,240H69.4a12.18,12.18,0,0,0-12.18,12.18V476.41H37.13v-279a80,80,0,0,0,70.78-14,80.65,80.65,0,0,0,98.7,0,80.63,80.63,0,0,0,98.71,0,80.63,80.63,0,0,0,98.72,0,80.78,80.78,0,0,0,70.78,14v279Z" transform="translate(0 -11.23)"/><path class="cls-7" d="M176.39,276.54H105.93a12.17,12.17,0,0,0-12.18,12.17V452.05a12.18,12.18,0,0,0,12.18,12.18h70.46a12.18,12.18,0,0,0,12.18-12.18V288.71A12.17,12.17,0,0,0,176.39,276.54ZM164.21,439.88h-46.1v-139h46.1v139Z" transform="translate(0 -11.23)"/><path class="cls-7" d="M446.73,240H264.34a12.18,12.18,0,0,0-12.18,12.18V434.57a12.18,12.18,0,0,0,12.18,12.18H446.73a12.18,12.18,0,0,0,12.18-12.18V252.18A12.19,12.19,0,0,0,446.73,240ZM278.83,422.4h-2.32v-158h158v158Z" transform="translate(0 -11.23)"/></svg>